<?xml version="1.0" encoding="utf-8"?>
<!-- Generator: Adobe Illustrator 24.2.3, SVG Export Plug-In . SVG Version: 6.00 Build 0)  -->
<svg version="1.1" xmlns="http://www.w3.org/2000/svg" xmlns:xlink="http://www.w3.org/1999/xlink" x="0px" y="0px"
	 viewBox="0 0 100 100" enable-background="new 0 0 100 100" xml:space="preserve">
<g id="Layer_1">
	<circle fill="#175CA1" cx="50" cy="50" r="48"/>
</g>
<g id="Layer_2">
	<g transform="translate(50 50) scale(0.69 0.69) rotate(0) translate(-50 -50)">
		<g>
			<path fill="#FFFFFF" stroke="#FFFFFF" stroke-width="2" stroke-miterlimit="10" d="M91.62,15.58C89,12.02,85.88,7.84,80,7.84
				s-8.88,4.19-11.63,7.74C65.62,19.14,64,21.44,60,21.44s-6-2.51-8.38-5.86C49.25,12.23,45.87,7.84,40,7.84s-8.87,4.19-11.62,7.74
				S24,21.44,20,21.44s-6-2.51-8.38-5.86S5.87,7.84,0,7.84h-2.5v8.37H0c4.13,0,6,2.51,8.38,5.86s5.75,7.74,11.62,7.74
				s8.87-4.19,11.62-7.74S36,16.21,40,16.21s6,2.51,8.38,5.86c2.38,3.35,5.75,7.74,11.62,7.74s8.88-4.19,11.62-7.74
				c2.75-3.56,4.38-5.86,8.38-5.86c4,0,6,2.51,8.37,5.86s5.75,7.74,11.63,7.74h2.5v-8.37H100C95.87,21.44,94,18.93,91.62,15.58z"/>
			<path fill="#FFFFFF" stroke="#FFFFFF" stroke-width="2" stroke-miterlimit="10" d="M91.62,77.39C89,73.84,85.88,69.65,80,69.65
				s-8.88,4.19-11.63,7.74C65.62,80.95,64,83.25,60,83.25s-6-2.51-8.38-5.86c-2.38-3.35-5.75-7.74-11.62-7.74s-8.87,4.19-11.62,7.74
				C25.62,80.95,24,83.25,20,83.25s-6-2.51-8.38-5.86C9.25,74.05,5.87,69.65,0,69.65h-2.5v8.37H0c4.13,0,6,2.51,8.38,5.86
				s5.75,7.74,11.62,7.74s8.87-4.19,11.62-7.74S36,78.02,40,78.02s6,2.51,8.38,5.86c2.38,3.35,5.75,7.74,11.62,7.74
				s8.88-4.19,11.62-7.74c2.75-3.56,4.38-5.86,8.38-5.86c4,0,6,2.51,8.37,5.86s5.75,7.74,11.63,7.74h2.5v-8.37H100
				C95.87,83.25,94,80.74,91.62,77.39z"/>
			<path fill="#FFFFFF" stroke="#FFFFFF" stroke-width="2" stroke-miterlimit="10" d="M91.62,46.49C89,42.93,85.88,38.74,80,38.74
				s-8.88,4.19-11.63,7.74C65.62,50.04,64,52.35,60,52.35s-6-2.51-8.38-5.86c-2.38-3.35-5.75-7.74-11.62-7.74s-8.87,4.19-11.62,7.74
				C25.62,50.04,24,52.35,20,52.35s-6-2.51-8.38-5.86S5.87,38.74,0,38.74h-2.5v8.37H0c4.13,0,6,2.51,8.38,5.86
				c2.38,3.35,5.75,7.74,11.62,7.74s8.87-4.19,11.62-7.74c2.75-3.56,4.38-5.86,8.38-5.86s6,2.51,8.38,5.86
				c2.38,3.35,5.75,7.74,11.62,7.74s8.88-4.19,11.62-7.74c2.75-3.56,4.38-5.86,8.38-5.86c4,0,6,2.51,8.37,5.86
				c2.37,3.35,5.75,7.74,11.63,7.74h2.5v-8.37H100C95.87,52.35,94,49.83,91.62,46.49z"/>
		</g>
	</g>
</g>
</svg>
