<?xml version="1.0" encoding="UTF-8" standalone="no"?>
<svg xmlns="http://www.w3.org/2000/svg" overflow="visible" viewBox="0 0 100 100" y="0px" x="0px" version="1.2">
  <g id="g26">
    <circle id="circle2" r="48" cy="50" cx="50.1" fill="#534B4A"/>
    <g id="g24">
      <g id="g12" transform="translate(50 50) scale(0.69 0.69) rotate(0) translate(-50 -50)">
        <path id="path4" d="M104.4,78.2c-59.6-164.3-107,0-107,0      H104.4z" stroke-miterlimit="2.666" stroke-width="2.76" stroke="#FFFFFF" fill="#FFFFFF"/>
        <ellipse id="ellipse6" ry="5.3" rx="4.6" cy="35.3" cx="50.9" stroke-miterlimit="2.76" stroke-width="0.2692" stroke="#FFFFFF" fill="#FFFFFF"/>
        <ellipse id="ellipse8" ry="5.3" rx="4.6" cy="54.9" cx="41.1" stroke-miterlimit="2.76" stroke-width="0.2692" stroke="#FFFFFF" fill="#FFFFFF"/>
        <ellipse id="ellipse10" ry="5.3" rx="4.6" cy="54.9" cx="60.8" stroke-miterlimit="2.76" stroke-width="0.2692" stroke="#FFFFFF" fill="#FFFFFF"/>
      </g>
      <g id="g22" transform="translate(50 50) scale(0.69 0.69) rotate(0) translate(-50 -50)">
        <path id="path14" d="M88.1,82.5c-24.5-98-44,0-44,0H88.1z" fill="#544C4B"/>
        <ellipse id="ellipse16" ry="3.1" rx="1.9" cy="56.9" cx="66.1" fill="#544C4B"/>
        <ellipse id="ellipse18" ry="3.1" rx="1.9" cy="68.6" cx="62" fill="#544C4B"/>
        <ellipse id="ellipse20" ry="3.1" rx="1.9" cy="68.6" cx="70.1" fill="#544C4B"/>
      </g>
    </g>
  </g>
</svg>
