<?xml version="1.0" encoding="utf-8"?>
<svg version="1.2" xmlns="http://www.w3.org/2000/svg" x="0px" y="0px" viewBox="0 0 100 100" overflow="visible">
<circle fill="#509E2F" cx="50" cy="50" r="48"/>
<g transform="translate(50 50) scale(0.69 0.69) rotate(0) translate(-50 -50)">
	<path fill="#FFFFFF" d="M97.4,45.4l-8.8,2.8v-6.3h3.5c4.8,0,8.8-3.9,8.8-8.8c0-2.7-1.3-5.3-3.5-7c0,0,0,0,0,0
		c0-5.8-4.7-10.5-10.5-10.5c-5.8,0-10.5,4.7-10.5,10.5c0,0,0,0,0,0c-1.4,1-2.4,2.4-3,4c-0.2-0.2-0.4-0.3-0.5-0.5c0,0,0,0,0,0
		c0-5.8-4.7-10.5-10.5-10.5s-10.5,4.7-10.5,10.5c0,0,0,0,0,0c-1.4,1-2.4,2.4-3,4c-0.2-0.2-0.4-0.3-0.5-0.5c0,0,0,0,0,0
		c0-5.8-4.7-10.5-10.5-10.5s-10.5,4.7-10.5,10.5c0,0,0,0,0,0c-1,0.8-1.8,1.7-2.4,2.8c-0.3-0.4-0.7-0.7-1.1-1c0,0,0,0,0,0
		c0-5.8-4.7-10.5-10.5-10.5S2.7,29.1,2.7,34.9c0,0,0,0,0,0c-2.2,1.6-3.5,4.2-3.5,7c0,4.8,3.9,8.8,8.8,8.8h3.5v7h-14v3.5h35.1L52,56
		h24.3l21.3-7h5v-3.5H97.4z M11.5,40.4l-2.5-1.7L7,41.6l4.5,3v2.6H8c-2.9,0-5.3-2.4-5.3-5.3c0-1.9,1-3.6,2.7-4.6
		c0.6-0.3,1-1,0.9-1.7l0-0.3c0-0.1,0-0.3,0-0.4c0-3.9,3.1-7,7-7s7,3.1,7,7c0,0.1,0,0.3,0,0.4l0,0.3c-0.1,0.7,0.3,1.4,0.9,1.7
		c1.7,0.9,2.7,2.7,2.7,4.6c0,2.9-2.4,5.3-5.3,5.3H15v-2.6l4.5-3l-1.9-2.9L15,40.4v-3.7h-3.5V40.4z M36,56.7l-3.7,1H15v-7h3.5
		c3.3,0,6.1-1.9,7.6-4.6c1.6,1.7,3.9,2.8,6.4,2.8H36V56.7z M36,38.7L33.5,37l-1.9,2.9l4.5,3v2.6h-3.5c-2.9,0-5.3-2.4-5.3-5.3
		c0-1.9,1-3.6,2.7-4.6c0.6-0.3,1-1,0.9-1.7l0-0.3c0-0.1,0-0.3,0-0.4c0-3.9,3.1-7,7-7s7,3.1,7,7c0,0.1,0,0.3,0,0.4l0,0.3
		c-0.1,0.7,0.3,1.4,0.9,1.7c1.7,0.9,2.7,2.7,2.7,4.6c0,2.9-2.4,5.3-5.3,5.3h-3.5v-2.6l4.5-3L42.1,37l-2.5,1.7v-3.7H36V38.7z
		 M60.6,52.5h-8.8l-12.3,3.3V49H43c3.8,0,7-2.4,8.2-5.8c1.6,1.4,3.6,2.3,5.8,2.3h3.5V52.5z M60.6,35.2L58,33.5l-1.9,2.9l4.5,3v2.6
		h-3.5c-2.9,0-5.3-2.4-5.3-5.3c0-1.9,1-3.6,2.7-4.6c0.6-0.3,1-1,0.9-1.7l0-0.3c0-0.1,0-0.3,0-0.4c0-3.9,3.1-7,7-7s7,3.1,7,7
		c0,0.1,0,0.3,0,0.4l0,0.3c-0.1,0.7,0.3,1.4,0.9,1.7c1.7,0.9,2.7,2.7,2.7,4.6c0,2.9-2.4,5.3-5.3,5.3h-3.5v-2.6l4.5-3l-1.9-2.9
		l-2.5,1.7v-3.7h-3.5V35.2z M85.1,49.4l-9.1,3h-12v-7h3.5c3.8,0,7-2.4,8.2-5.8c1.6,1.4,3.6,2.3,5.8,2.3h3.5V49.4z M85.1,31.7
		L82.6,30l-1.9,2.9l4.5,3v2.6h-3.5c-2.9,0-5.3-2.4-5.3-5.3c0-1.9,1-3.6,2.7-4.6c0.6-0.3,1-1,0.9-1.7l0-0.3c0-0.1,0-0.3,0-0.4
		c0-3.9,3.1-7,7-7c3.9,0,7,3.1,7,7c0,0.1,0,0.3,0,0.4l0,0.3c-0.1,0.7,0.3,1.4,0.9,1.7c1.7,0.9,2.7,2.7,2.7,4.6
		c0,2.9-2.4,5.3-5.3,5.3h-3.5v-2.6l4.5-3L91.2,30l-2.5,1.7v-3.7h-3.5V31.7z"/>
	<path fill="#FFFFFF" d="M38,7.8c-1.2,0-2.3,0.5-3.1,1.2c-0.8-0.7-1.9-1.2-3.1-1.2c-2.6,0-4.7,2.1-4.7,4.7h3.1
		c0-0.9,0.7-1.6,1.6-1.6s1.6,0.7,1.6,1.6c0,0.9,0.7,1.6,1.6,1.6c0.9,0,1.6-0.7,1.6-1.6c0-0.9,0.7-1.6,1.6-1.6c0.9,0,1.6,0.7,1.6,1.6
		h3.1C42.6,9.9,40.5,7.8,38,7.8z"/>
	<path fill="#FFFFFF" d="M15.6,3.2c0.9,0,1.6,0.7,1.6,1.6c0,0.9,0.7,1.6,1.6,1.6s1.6-0.7,1.6-1.6c0-0.9,0.7-1.6,1.6-1.6
		s1.6,0.7,1.6,1.6h3.1c0-2.6-2.1-4.7-4.7-4.7c-1.2,0-2.3,0.5-3.1,1.2c-0.8-0.7-1.9-1.2-3.1-1.2c-2.6,0-4.7,2.1-4.7,4.7h3.1
		C14.1,3.9,14.8,3.2,15.6,3.2z"/>
	<path fill="#FFFFFF" d="M91,80.3c-3.4,0-5.2,1.1-6.8,2c-1.4,0.8-2.5,1.5-5,1.5c-2.4,0-3.5-0.7-4.9-1.5c-1.6-0.9-3.3-2-6.7-2
		c-3.4,0-5.2,1.1-6.7,2c-1.4,0.8-2.5,1.5-4.9,1.5c-2.4,0-3.5-0.7-4.9-1.5c-1.6-0.9-3.3-2-6.7-2c-3.4,0-5.2,1.1-6.7,2
		c-1.4,0.8-2.5,1.5-4.9,1.5c-2.4,0-3.5-0.7-4.9-1.5c-1.6-0.9-3.3-2-6.7-2s-5.2,1.1-6.7,2c-1.4,0.8-2.5,1.5-4.9,1.5s-3.5-0.7-4.9-1.5
		c-1.6-0.9-3.3-2-6.7-2v3.5c2.4,0,3.5,0.7,4.9,1.5c1.6,0.9,3.3,2,6.7,2c3.4,0,5.2-1.1,6.7-2c1.4-0.8,2.5-1.5,4.9-1.5
		s3.5,0.7,4.9,1.5c1.6,0.9,3.3,2,6.7,2c3.4,0,5.2-1.1,6.7-2c1.4-0.8,2.5-1.5,4.9-1.5c2.4,0,3.5,0.7,4.9,1.5c1.6,0.9,3.3,2,6.7,2
		c3.4,0,5.2-1.1,6.7-2c1.4-0.8,2.5-1.5,4.9-1.5c2.4,0,3.5,0.7,4.9,1.5c1.6,0.9,3.3,2,6.7,2c3.4,0,5.2-1.1,6.8-2
		c1.4-0.8,2.5-1.5,5-1.5c2.4,0,3.5,0.7,4.9,1.5c1.6,0.9,3.3,2,6.8,2v-3.5c-2.4,0-3.5-0.7-5-1.5C96.1,81.3,94.4,80.3,91,80.3z"/>
	<rect x="-2.6" y="68.6" fill="#FFFFFF" width="105.2" height="3.5"/>
</g>
</svg>
