<svg xmlns="http://www.w3.org/2000/svg" viewBox="0 0 100 100"><defs><style>.cls-1{fill:#175ca1;}.cls-2{fill:#fff;stroke:#fff;stroke-miterlimit:10;stroke-width:2px;}</style></defs><g id="Layer_1" data-name="Layer 1"><circle class="cls-1" cx="50" cy="50" r="48"/></g><g id="Layer_2" data-name="Layer 2"><path class="cls-2" d="M78.72,26.25c-1.81-2.46-4-5.34-8-5.34s-6.12,2.88-8,5.34-3,4-5.78,4-4.14-1.73-5.78-4-4-5.34-8-5.34-6.12,2.88-8,5.34-3,4-5.78,4-4.14-1.73-5.78-4-4-5.34-8-5.34H13.78v5.77H15.5c2.85,0,4.14,1.73,5.78,4.05s4,5.34,8,5.34,6.12-2.89,8-5.34,3-4.05,5.78-4.05,4.14,1.73,5.78,4.05,4,5.34,8,5.34,6.12-2.89,8-5.34,3-4.05,5.78-4.05,4.14,1.73,5.78,4.05,4,5.34,8,5.34h1.72V30.29H84.5C81.65,30.29,80.36,28.56,78.72,26.25Z"/><path class="cls-2" d="M78.72,68.9c-1.81-2.45-4-5.34-8-5.34s-6.12,2.89-8,5.34-3,4-5.78,4-4.14-1.73-5.78-4-4-5.34-8-5.34-6.12,2.89-8,5.34-3,4-5.78,4-4.14-1.73-5.78-4-4-5.34-8-5.34H13.78v5.77H15.5c2.85,0,4.14,1.74,5.78,4s4,5.34,8,5.34,6.12-2.89,8-5.34,3-4,5.78-4,4.14,1.74,5.78,4,4,5.34,8,5.34,6.12-2.89,8-5.34,3-4,5.78-4,4.14,1.74,5.78,4,4,5.34,8,5.34h1.72V72.94H84.5C81.65,72.94,80.36,71.21,78.72,68.9Z"/><path class="cls-2" d="M78.72,47.58c-1.81-2.46-4-5.35-8-5.35s-6.12,2.89-8,5.35-3,4-5.78,4-4.14-1.73-5.78-4-4-5.35-8-5.35-6.12,2.89-8,5.35-3,4-5.78,4-4.14-1.73-5.78-4-4-5.35-8-5.35H13.78V48H15.5c2.85,0,4.14,1.73,5.78,4s4,5.34,8,5.34,6.12-2.88,8-5.34,3-4,5.78-4,4.14,1.73,5.78,4,4,5.34,8,5.34,6.12-2.88,8-5.34,3-4,5.78-4,4.14,1.73,5.78,4,4,5.34,8,5.34h1.72V51.62H84.5C81.65,51.62,80.36,49.89,78.72,47.58Z"/></g></svg>