<svg xmlns="http://www.w3.org/2000/svg" overflow="visible" version="1.2" viewBox="0 0 100 100" x="0px" y="0px">
  <circle cx="50" cy="50" fill="#175CA1" r="48"></circle>
  <g transform="translate(50 50) scale(0.69 0.69) rotate(0) translate(-50 -50)">
    <g>
      <path d="M91.6,26.4c-2.6-2.1-5.7-4.6-11.6-4.6s-8.9,2.5-11.6,4.6c-2.8,2.1-4.4,3.5-8.4,3.5s-6-1.5-8.4-3.5 c-2.4-2-5.7-4.6-11.6-4.6s-8.9,2.5-11.6,4.6S24,29.9,20,29.9s-6-1.5-8.4-3.5S5.9,21.8,0,21.8h-2.5v5H0c4.1,0,6,1.5,8.4,3.5 s5.8,4.6,11.6,4.6s8.9-2.5,11.6-4.6s4.4-3.5,8.4-3.5s6,1.5,8.4,3.5c2.4,2,5.8,4.6,11.6,4.6s8.9-2.5,11.6-4.6 c2.8-2.1,4.4-3.5,8.4-3.5c4,0,6,1.5,8.4,3.5s5.8,4.6,11.6,4.6h2.5v-5H100C95.9,29.9,94,28.4,91.6,26.4z" fill="#FFFFFF"></path>
      <path d="M91.6,48c-2.6-2.1-5.7-4.6-11.6-4.6s-8.9,2.5-11.6,4.6c-2.8,2.1-4.4,3.5-8.4,3.5S54,50,51.6,48 c-2.4-2-5.7-4.6-11.6-4.6s-8.9,2.5-11.6,4.6S24,51.5,20,51.5S14,50,11.6,48C9.2,46,5.9,43.4,0,43.4h-2.5v5H0 c4.1,0,6,1.5,8.4,3.5c2.4,2,5.8,4.6,11.6,4.6s8.9-2.5,11.6-4.6c2.8-2.1,4.4-3.5,8.4-3.5s6,1.5,8.4,3.5c2.4,2,5.8,4.6,11.6,4.6 s8.9-2.5,11.6-4.6c2.8-2.1,4.4-3.5,8.4-3.5c4,0,6,1.5,8.4,3.5c2.4,2,5.8,4.6,11.6,4.6h2.5v-5H100C95.9,51.5,94,50,91.6,48z" fill="#FFFFFF"></path>
      <path d="M91.6,69.8c-2.6-2.1-5.7-4.6-11.6-4.6s-8.9,2.5-11.6,4.6c-2.8,2.1-4.4,3.5-8.4,3.5s-6-1.5-8.4-3.5 c-2.4-2-5.7-4.6-11.6-4.6s-8.9,2.5-11.6,4.6c-2.8,2.1-4.4,3.5-8.4,3.5s-6-1.5-8.4-3.5S5.9,65.1,0,65.1h-2.5v5H0 c4.1,0,6,1.5,8.4,3.5s5.8,4.6,11.6,4.6s8.9-2.5,11.6-4.6c2.8-2.1,4.4-3.5,8.4-3.5s6,1.5,8.4,3.5c2.4,2,5.8,4.6,11.6,4.6 s8.9-2.5,11.6-4.6c2.8-2.1,4.4-3.5,8.4-3.5c4,0,6,1.5,8.4,3.5s5.8,4.6,11.6,4.6h2.5v-5H100C95.9,73.2,94,71.6,91.6,69.8z" fill="#FFFFFF"></path>
    </g>
  </g>
</svg>
